<svg width="27" height="27" viewBox="0 0 27 27" fill="none" xmlns="http://www.w3.org/2000/svg">
<path d="M22.1645 18.0783L21.7391 15.3081C21.7055 15.0885 21.7594 14.8644 21.8889 14.684L23.5248 12.4083C23.7798 12.0536 23.7236 11.5633 23.3954 11.2752L21.2889 9.42647C21.122 9.27991 21.0191 9.07373 21.0025 8.85227L20.7928 6.05752C20.7603 5.6219 20.4022 5.28233 19.9655 5.27253L17.1633 5.21041C16.9413 5.20531 16.73 5.11348 16.5748 4.95468L14.6179 2.94864C14.3128 2.63606 13.8203 2.60592 13.4794 2.87925L11.2931 4.63244C11.1198 4.77136 10.8989 4.83681 10.6779 4.81475L7.88911 4.53594C7.45434 4.49248 7.05773 4.78604 6.97242 5.21439L6.42443 7.96297C6.38113 8.1808 6.25385 8.37303 6.07036 8.49823L3.75496 10.0774C3.39401 10.3235 3.27915 10.8033 3.489 11.1865L4.83603 13.6441C4.94285 13.839 4.969 14.0679 4.90886 14.2818L4.15016 16.9798C4.03173 17.4003 4.25223 17.842 4.65907 18.0003L7.27076 19.0171C7.47775 19.0976 7.64475 19.2563 7.73652 19.4587L8.88929 22.0131C9.06907 22.4111 9.52187 22.6079 9.93535 22.4677L12.5896 21.5679C12.7999 21.4965 13.0299 21.5106 13.2302 21.6072L15.7552 22.8228C16.1489 23.0124 16.622 22.8719 16.8487 22.4988L18.3036 20.1034C18.4191 19.9134 18.6042 19.7764 18.8194 19.7214L21.5352 19.0296C21.9585 18.9216 22.2308 18.5101 22.1645 18.0783ZM9.81443 15.4159L8.23474 12.8458L8.22796 15.4116L7.49012 15.4097L7.50019 11.4754L8.27299 11.4772L9.87681 14.1088L9.88332 11.4814L10.6212 11.4831L10.6115 15.4178L9.81443 15.4159ZM11.4514 15.4199L11.4615 11.4856L14.379 11.4927L14.377 12.1584L12.2539 12.1529L12.2517 13.025L14.2273 13.0299L14.2255 13.6929L12.2501 13.6877L12.2474 14.7586L14.4454 14.7642L14.4436 15.4272L11.4514 15.4199ZM18.1021 15.437L17.326 12.4932L16.5373 15.4326L15.6759 15.4305L14.7467 11.4939L15.5598 11.4957L16.1461 14.1999L16.8722 11.4993L17.8173 11.5017L18.4999 14.2517L19.1107 11.505L19.9105 11.5069L18.9448 15.4391L18.1021 15.437Z" fill="#C25202"/>
</svg>
