<svg width="18" height="19" viewBox="0 0 18 19" fill="none" xmlns="http://www.w3.org/2000/svg">
<g clip-path="url(#clip0)">
<path d="M17.7078 8.24241C16.6976 6.94715 15.389 5.87577 13.9237 5.14417C12.4279 4.39735 10.8187 4.00986 9.13878 3.98954C9.09252 3.98827 8.90675 3.98827 8.86049 3.98954C7.18065 4.00989 5.57141 4.39735 4.07559 5.14417C2.61024 5.87577 1.30177 6.94712 0.291518 8.24241C-0.0976609 8.74139 -0.0976609 9.43836 0.291518 9.93733C1.30173 11.2326 2.61024 12.304 4.07559 13.0356C5.57141 13.7824 7.18062 14.1699 8.86049 14.1902C8.90675 14.1915 9.09252 14.1915 9.13878 14.1902C10.8186 14.1699 12.4279 13.7824 13.9237 13.0356C15.389 12.304 16.6975 11.2326 17.7078 9.93733C18.097 9.43829 18.097 8.74139 17.7078 8.24241ZM4.40272 12.3804C3.03444 11.6973 1.81248 10.6967 0.868923 9.48698C0.686568 9.25315 0.686568 8.92659 0.868923 8.69276C1.81244 7.48301 3.0344 6.48246 4.40272 5.79931C4.79133 5.60531 5.18818 5.43755 5.59237 5.29552C4.55252 6.23025 3.89738 7.58489 3.89738 9.08985C3.89738 10.5949 4.55255 11.9496 5.59251 12.8843C5.18832 12.7423 4.79137 12.5745 4.40272 12.3804ZM8.99967 13.4599C6.58999 13.4599 4.62961 11.4995 4.62961 9.08982C4.62961 6.68014 6.58999 4.7198 8.99967 4.7198C11.4093 4.7198 13.3697 6.68018 13.3697 9.08985C13.3697 11.4995 11.4093 13.4599 8.99967 13.4599ZM17.1304 9.48694C16.1869 10.6967 14.9649 11.6972 13.5966 12.3804C13.2085 12.5742 12.8119 12.7412 12.4082 12.8831C13.4473 11.9484 14.102 10.5942 14.102 9.08982C14.102 7.58464 13.4466 6.22983 12.4066 5.2951C12.8109 5.43716 13.2079 5.60514 13.5967 5.79923C14.9649 6.48239 16.1869 7.48294 17.1305 8.69269C17.3128 8.92655 17.3128 9.25312 17.1304 9.48694Z" fill="#8C91BA"/>
<path d="M8.99989 7.21967C7.96869 7.21967 7.12976 8.0586 7.12976 9.0898C7.12976 10.121 7.96869 10.9599 8.99989 10.9599C10.0311 10.9599 10.87 10.121 10.87 9.0898C10.8701 8.0586 10.0311 7.21967 8.99989 7.21967ZM8.99989 10.2277C8.37246 10.2277 7.86196 9.71731 7.86196 9.0898C7.86196 8.46233 8.37239 7.9519 8.99989 7.9519C9.62733 7.9519 10.1378 8.46233 10.1378 9.0898C10.1378 9.71731 9.62733 10.2277 8.99989 10.2277Z" fill="#8C91BA"/>
</g>
<defs>
<clipPath id="clip0">
<rect width="18" height="18" fill="white" transform="matrix(-1 0 0 1 18 0.0898438)"/>
</clipPath>
</defs>
</svg>
