<svg width="40" height="40" viewBox="0 0 40 40" fill="none" xmlns="http://www.w3.org/2000/svg">
<g clip-path="url(#clip0)">
<path d="M38.6521 10.4023C38.4348 9.7736 37.9856 9.26701 37.3875 8.97587L19.4465 0.250565C18.2114 -0.350022 16.7185 0.166032 16.1179 1.40078L15.2802 3.12228L10.3794 2.16341C9.02804 1.89913 7.71303 2.78323 7.44844 4.13455L6.82588 7.31388H3.74055C2.36725 7.31388 1.25 8.43113 1.25 9.80473V37.5093C1.25 38.8829 2.36725 40.0001 3.74055 40.0001H23.6912C25.0645 40.0001 26.182 38.8829 26.182 37.5093V37.5038C26.2788 37.4314 26.3605 37.3356 26.417 37.2193L38.5377 12.3053C38.8288 11.7072 38.8694 11.0312 38.6521 10.4023ZM17.5229 2.08437C17.7466 1.62416 18.3033 1.43221 18.7632 1.6559L26.1536 5.25027L16.8668 3.43295L17.5229 2.08437ZM8.98165 4.43484C9.08083 3.92886 9.57277 3.59774 10.0794 3.69692L15.5564 4.7687C15.5661 4.77084 15.5759 4.77267 15.5857 4.7745L29.6445 7.52536C29.8899 7.57328 30.1017 7.71396 30.2409 7.92118C30.3803 8.12839 30.4307 8.37742 30.3828 8.62247L26.1817 30.0831V9.80473C26.1817 8.43143 25.0645 7.31388 23.6912 7.31388H8.41799L8.98165 4.43484ZM24.6195 37.5096C24.6195 38.0213 24.2029 38.4376 23.6912 38.4376H3.74055C3.22876 38.4376 2.8125 38.021 2.8125 37.5096V9.80473C2.8125 9.29295 3.22876 8.87669 3.74055 8.87669H23.6912C24.2029 8.87669 24.6195 9.29295 24.6195 9.80473V37.5096ZM37.1327 11.6217L27.5202 31.3804L31.916 8.92277C31.9724 8.63407 31.9779 8.34385 31.9346 8.06156L36.7042 10.3812C36.927 10.4895 37.0942 10.6784 37.1754 10.9128C37.2563 11.1469 37.2413 11.3987 37.1327 11.6217Z" fill="white"/>
<path d="M13.6071 28.8484C13.4536 28.8484 13.3001 28.8032 13.1673 28.7129C13.1044 28.6701 11.6143 27.6499 10.1018 26.2266C7.96833 24.2179 6.88647 22.4369 6.88647 20.933C6.88647 18.7653 8.65009 17.002 10.8181 17.002C11.914 17.002 12.9277 17.4467 13.6562 18.2093C14.3819 17.4793 15.3762 17.0542 16.4412 17.0542C18.6092 17.0542 20.3728 18.8178 20.3728 20.9852C20.3728 22.4696 19.2821 24.2362 17.1313 26.2364C15.6084 27.6524 14.1079 28.6714 14.045 28.7141C13.9126 28.8038 13.76 28.8484 13.6071 28.8484ZM10.8178 18.5642C9.5116 18.5642 8.44898 19.6268 8.44898 20.9327C8.44898 22.7537 11.4495 25.5515 13.6089 27.1134C15.7845 25.5518 18.8103 22.7668 18.8103 20.9852C18.8103 19.6793 17.7474 18.6167 16.4412 18.6167C15.5526 18.6167 14.7463 19.1077 14.3367 19.8981C14.2013 20.1597 13.9284 20.3245 13.6358 20.3199C13.341 20.3171 13.0733 20.1493 12.9427 19.885C12.5396 19.0705 11.7257 18.5642 10.8178 18.5642Z" fill="white"/>
<path d="M5.09082 13.3518C4.6593 13.3518 4.30957 13.0021 4.30957 12.5706V11.3941C4.30957 10.9626 4.6593 10.6129 5.09082 10.6129C5.52204 10.6129 5.87208 10.9626 5.87208 11.3941V12.5706C5.87208 13.0021 5.52204 13.3518 5.09082 13.3518Z" fill="white"/>
<path d="M22.3411 36.5137C21.9095 36.5137 21.5598 36.164 21.5598 35.7325V34.556C21.5598 34.1245 21.9095 33.7748 22.3411 33.7748C22.7723 33.7748 23.1223 34.1245 23.1223 34.556V35.7325C23.1223 36.164 22.7723 36.5137 22.3411 36.5137Z" fill="white"/>
<path d="M19.7729 31.9871C19.7223 31.9871 19.6713 31.9816 19.6207 31.9715C19.5706 31.9615 19.5215 31.9465 19.4748 31.927C19.4278 31.9074 19.3817 31.8833 19.3396 31.8552C19.2966 31.8269 19.2566 31.7942 19.2209 31.7582C19.1849 31.7222 19.1519 31.6825 19.1238 31.6395C19.0958 31.5974 19.0717 31.5519 19.0521 31.5043C19.0326 31.4573 19.0176 31.4082 19.0076 31.3581C18.9972 31.3084 18.9917 31.2568 18.9917 31.2058C18.9917 31.1552 18.9972 31.1036 19.0076 31.0526C19.0176 31.0035 19.0326 30.9544 19.0521 30.9068C19.0717 30.8598 19.0958 30.8146 19.1238 30.7722C19.1519 30.7294 19.1849 30.6895 19.2209 30.6535C19.2566 30.6174 19.2966 30.5848 19.3396 30.5558C19.3817 30.5277 19.4278 30.5042 19.4748 30.4847C19.5215 30.4652 19.5706 30.4496 19.6207 30.4395C19.7217 30.4191 19.8254 30.4191 19.9261 30.4395C19.9762 30.4496 20.0253 30.4652 20.0723 30.4847C20.119 30.5042 20.1645 30.5277 20.2075 30.5558C20.2496 30.5848 20.2893 30.6174 20.3262 30.6535C20.3619 30.6895 20.394 30.7294 20.423 30.7722C20.451 30.8146 20.4755 30.8598 20.495 30.9068C20.5145 30.9544 20.5292 31.0035 20.5395 31.0526C20.5496 31.1036 20.5542 31.1552 20.5542 31.2058C20.5542 31.2568 20.5496 31.3084 20.5395 31.3581C20.5292 31.4082 20.5145 31.4573 20.495 31.5043C20.4755 31.5519 20.451 31.5974 20.423 31.6395C20.394 31.6825 20.3619 31.7222 20.3262 31.7582C20.2893 31.7942 20.2496 31.8269 20.2075 31.8552C20.1645 31.8833 20.119 31.9074 20.0723 31.927C20.0253 31.9465 19.9762 31.9615 19.9261 31.9715C19.8755 31.9816 19.8245 31.9871 19.7729 31.9871Z" fill="white"/>
<path d="M16.7925 31.9871H7.48584C7.05432 31.9871 6.70459 31.6373 6.70459 31.2058C6.70459 30.7743 7.05432 30.4246 7.48584 30.4246H16.7925C17.224 30.4246 17.5738 30.7743 17.5738 31.2058C17.5738 31.6373 17.224 31.9871 16.7925 31.9871Z" fill="white"/>
</g>
<defs>
<clipPath id="clip0">
<rect width="40" height="40" fill="white"/>
</clipPath>
</defs>
</svg>
